<?xml version="1.0" standalone="no"?>
<!DOCTYPE svg PUBLIC "-//W3C//DTD SVG 20010904//EN"
 "http://www.w3.org/TR/2001/REC-SVG-20010904/DTD/svg10.dtd">
<svg version="1.0" xmlns="http://www.w3.org/2000/svg"
 width="2000.000000pt" height="2000.000000pt" viewBox="0 0 2000.000000 2000.000000"
 preserveAspectRatio="xMidYMid meet">

<g transform="translate(0.000000,2000.000000) scale(0.100000,-0.100000)"
fill="#000000" stroke="none">
<path d="M5508 18800 c-158 -25 -302 -102 -434 -234 -132 -133 -194 -265 -194
-413 0 -35 -1 -63 -2 -63 -2 0 -28 10 -58 21 -85 34 -251 38 -353 10 -316 -87
-556 -364 -557 -643 0 -27 -1 -48 -2 -48 -2 0 -28 10 -58 21 -84 33 -242 38
-342 10 -154 -42 -267 -108 -378 -221 -113 -115 -172 -241 -186 -395 -4 -41
-7 -75 -8 -75 -1 0 -29 10 -61 21 -159 57 -371 25 -552 -82 -77 -46 -203 -167
-252 -243 -102 -156 -124 -341 -61 -509 48 -128 -69 -42 1789 -1321 941 -648
1716 -1188 1723 -1200 23 -43 483 -713 533 -776 125 -157 336 -281 545 -321
36 -6 117 -12 180 -11 390 3 742 260 860 629 51 160 62 292 35 444 -33 193
-63 248 -381 712 -142 208 -262 383 -266 390 -5 7 -219 912 -478 2012 -275
1172 -478 2017 -490 2041 -45 87 -177 187 -295 223 -76 23 -183 32 -257 21z
m262 -176 c75 -36 152 -101 168 -141 23 -56 653 -2756 645 -2763 -4 -4 -99
-69 -211 -144 -195 -132 -202 -136 -211 -114 -35 90 -1064 2433 -1081 2459
-30 49 -60 154 -60 208 0 125 59 249 170 355 129 123 260 177 420 173 82 -2
104 -7 160 -33z m-966 -662 c41 -19 86 -51 119 -84 51 -52 60 -72 591 -1286
296 -678 537 -1234 535 -1236 -2 -2 -53 -37 -114 -78 -60 -42 -157 -107 -214
-147 -58 -39 -108 -68 -112 -64 -4 5 -343 501 -755 1103 -443 649 -757 1118
-771 1152 -92 226 33 480 303 617 94 48 156 61 260 57 77 -3 102 -8 158 -34z
m-1039 -636 c141 -37 191 -88 418 -421 100 -148 436 -640 746 -1093 309 -453
561 -827 559 -833 -2 -5 -95 -72 -207 -148 -199 -136 -205 -140 -226 -123 -68
54 -1906 1880 -1919 1906 -64 136 -66 254 -7 381 110 234 412 391 636 331z
m-972 -661 c32 -8 74 -23 93 -33 31 -16 642 -614 1712 -1677 l353 -351 -197
-134 c-109 -74 -207 -139 -219 -144 -19 -8 -180 100 -1188 794 l-1165 802 -28
62 c-21 45 -29 82 -32 142 -8 140 41 255 155 366 155 151 350 216 516 173z
m3837 -1099 c0 -2 56 -243 125 -535 69 -292 125 -537 125 -544 0 -12 -190
-148 -215 -154 -7 -2 -372 815 -433 967 -3 8 376 270 390 270 4 0 8 -2 8 -4z
m-305 -828 c116 -264 211 -484 213 -488 3 -8 -231 -170 -245 -170 -12 0 -585
837 -587 856 -1 12 379 282 399 283 6 0 105 -216 220 -481z m-652 -15 c293
-429 484 -709 490 -720 5 -7 -33 -39 -102 -87 -60 -42 -113 -76 -118 -76 -6 0
-180 167 -387 372 -308 303 -375 373 -364 384 13 12 379 264 384 264 2 0 45
-62 97 -137z m-239 -590 c204 -201 371 -372 371 -379 0 -13 -211 -164 -228
-164 -20 0 -927 634 -919 642 16 16 387 267 396 268 4 0 175 -165 380 -367z
m1590 126 c26 -39 46 -72 44 -74 -19 -15 -1270 -867 -1280 -870 -13 -5 -98
109 -98 130 0 9 1265 881 1281 884 3 1 27 -31 53 -70z m275 -402 c145 -213
173 -261 206 -355 128 -367 -39 -776 -390 -952 -213 -107 -474 -109 -690 -5
-86 41 -196 125 -249 189 -42 51 -306 434 -309 448 -1 5 286 206 638 448 593
406 641 437 656 421 9 -9 71 -96 138 -194z"/>
<path d="M12590 17629 c-224 -121 -388 -263 -429 -374 -64 -169 -139 -714
-188 -1345 -21 -286 -25 -913 -5 -1040 l13 -85 -205 -913 c-113 -502 -206
-915 -206 -918 0 -2 -6 -4 -13 -4 -11 0 -160 -271 -444 -809 -46 -86 -94 -190
-108 -231 -186 -561 129 -1148 702 -1307 88 -25 115 -28 258 -28 142 0 170 3
255 27 52 14 126 41 165 58 162 73 332 218 427 365 72 111 517 950 515 972 -1
13 211 242 649 702 l649 683 90 45 c395 200 1280 877 1715 1313 160 160 192
207 217 322 25 119 16 498 -13 528 -3 3 -111 5 -240 5 l-234 0 0 68 c0 74 -24
256 -44 334 l-13 48 -134 -1 c-78 -1 -174 -9 -229 -19 -146 -27 -134 -31 -142
49 -14 142 -78 376 -103 376 -8 0 -65 -7 -128 -15 -138 -18 -289 -55 -364 -90
-30 -14 -59 -25 -63 -25 -4 0 -10 29 -14 65 -12 121 -102 411 -141 453 -24 27
-351 -62 -474 -128 -30 -17 -58 -30 -61 -30 -4 0 -10 21 -13 48 -9 79 -63 231
-129 362 -58 115 -65 125 -88 121 -50 -7 -207 -64 -307 -111 -57 -27 -104 -46
-107 -42 -2 4 -9 25 -16 47 -20 62 -97 211 -156 303 -29 45 -55 82 -58 82 -2
0 -42 -16 -89 -35 -102 -41 -169 -74 -256 -126 -34 -22 -66 -39 -70 -39 -4 0
-18 23 -32 52 -44 96 -212 338 -234 338 -5 0 -53 -23 -105 -51z m-165 -2446
c-9 -98 -17 -254 -17 -348 l0 -170 -155 -490 c-85 -269 -157 -492 -158 -494
-3 -2 -189 93 -203 105 -2 1 44 218 103 481 l107 478 51 80 c62 99 169 304
233 448 27 59 50 103 52 98 2 -6 -4 -91 -13 -188z m1139 15 c-115 -341 -198
-648 -230 -846 l-18 -107 -248 -465 c-137 -256 -253 -469 -257 -473 -5 -5 -66
22 -135 59 -110 58 -126 71 -122 88 3 12 95 239 206 505 l200 484 64 67 c35
38 99 115 142 171 75 98 315 454 397 588 20 33 39 61 41 61 3 0 -16 -60 -40
-132z m-645 -78 c-39 -201 -67 -395 -75 -525 l-6 -110 -200 -485 c-110 -267
-203 -488 -207 -493 -5 -5 -190 86 -219 109 -2 1 17 64 42 140 24 77 97 303
161 504 l117 365 68 90 c71 93 184 274 284 453 32 57 59 102 61 100 2 -2 -10
-68 -26 -148z m1191 -251 c-144 -325 -237 -571 -288 -765 l-27 -101 -300 -451
c-165 -248 -305 -452 -312 -452 -17 0 -247 126 -251 138 -2 6 108 219 244 474
l247 463 99 94 c149 141 429 468 603 703 27 37 51 65 53 63 2 -2 -28 -77 -68
-166z m312 -569 c-95 -188 -164 -346 -203 -460 -28 -83 -34 -93 -346 -483
-175 -219 -326 -408 -335 -420 l-17 -22 -106 55 c-74 39 -104 60 -102 70 2 9
135 211 294 450 l290 435 99 76 c109 83 282 239 413 373 47 47 86 84 88 83 1
-2 -33 -73 -75 -157z m385 -311 c-95 -155 -182 -312 -231 -422 l-44 -97 -342
-360 c-188 -198 -347 -360 -353 -360 -11 0 -176 86 -190 100 -5 4 138 192 318
416 l327 409 86 53 c95 59 260 182 397 296 49 41 91 73 93 71 2 -1 -26 -49
-61 -106z m-2786 -405 l37 -23 -119 -372 c-66 -205 -121 -374 -123 -376 -2 -2
-31 11 -65 29 -39 21 -61 39 -61 51 0 14 139 645 166 754 l6 22 61 -31 c34
-17 78 -41 98 -54z m260 -136 c54 -29 99 -57 99 -62 0 -16 -293 -716 -300
-716 -15 0 -145 77 -144 86 1 5 48 153 104 329 56 176 109 341 117 368 7 26
16 47 19 47 3 0 50 -24 105 -52z m419 -226 c25 -14 47 -26 49 -28 4 -3 -346
-663 -360 -678 -7 -8 -158 62 -182 84 -7 6 63 180 279 698 l13 33 78 -42 c43
-23 98 -53 123 -67z m296 -158 c68 -36 124 -68 124 -70 0 -11 -426 -637 -436
-641 -13 -5 -186 86 -182 96 9 23 364 681 367 681 2 0 59 -30 127 -66z m352
-188 c62 -32 91 -53 88 -62 -3 -7 -113 -148 -245 -313 l-241 -300 -71 38 c-39
21 -71 42 -72 46 -2 15 427 646 438 643 5 -2 52 -25 103 -52z m397 -223 c0
-10 -217 -243 -448 -480 l-99 -102 -58 29 c-32 16 -61 33 -64 38 -3 5 106 146
241 315 l245 307 92 -48 c50 -26 91 -53 91 -59z"/>
<path d="M5245 11252 c-11 -2 -33 -15 -50 -27 -47 -35 -100 -59 -225 -100
-138 -45 -210 -80 -272 -132 -103 -85 -200 -238 -229 -363 -15 -65 -15 -207 1
-338 20 -173 -25 -312 -140 -435 -72 -77 -120 -104 -281 -157 -169 -57 -249
-101 -328 -181 -157 -158 -214 -329 -190 -567 27 -273 -1 -384 -132 -526 -61
-67 -123 -102 -267 -150 -146 -49 -213 -81 -285 -133 -99 -73 -193 -214 -233
-349 -19 -68 -22 -162 -10 -379 8 -141 7 -154 -14 -215 -40 -118 -114 -217
-206 -276 -28 -18 -118 -56 -200 -84 -161 -56 -230 -91 -305 -158 -104 -93
-143 -177 -101 -215 32 -29 96 -44 492 -116 443 -81 1166 -213 2445 -447 495
-90 1148 -210 1450 -265 535 -97 555 -102 720 -161 94 -33 179 -65 190 -71 11
-5 148 -93 305 -195 313 -204 396 -250 513 -287 353 -112 738 -50 1027 166
299 223 460 546 460 921 0 332 -139 636 -392 855 -35 30 -200 144 -368 253
-252 164 -329 220 -443 322 l-138 123 -1367 1839 c-768 1033 -1376 1842 -1387
1846 -11 3 -29 4 -40 2z m978 -1478 l968 -1305 -63 -100 c-35 -54 -66 -98 -69
-97 -3 2 -515 554 -1139 1228 -623 674 -1151 1244 -1173 1267 l-40 41 48 47
c60 58 134 95 289 146 66 22 135 49 151 59 17 10 37 18 45 19 8 0 439 -572
983 -1305z m-421 -355 c634 -685 1159 -1253 1166 -1261 11 -14 1 -33 -64 -132
-42 -65 -80 -116 -85 -114 -4 2 -513 446 -1130 988 -617 542 -1127 988 -1133
992 -7 4 1 40 23 105 30 88 34 109 33 203 0 58 -4 150 -9 205 -12 131 8 273
36 263 5 -2 528 -564 1163 -1249z m-999 70 c183 -160 693 -609 1135 -996 568
-499 802 -709 798 -720 -6 -15 -183 -291 -197 -307 -5 -6 -2225 1545 -2743
1917 -13 9 60 78 119 112 22 13 105 46 185 74 172 59 223 86 299 157 31 29 60
53 64 54 5 0 158 -131 340 -291z m-83 -930 c547 -385 1160 -816 1362 -957 202
-141 367 -261 367 -265 1 -11 -171 -277 -179 -277 -8 0 -2633 1419 -2642 1428
-4 4 3 34 16 67 40 99 48 192 31 362 -10 100 -12 168 -6 208 9 64 35 135 48
135 4 0 456 -316 1003 -701z m-570 -517 c300 -162 745 -403 990 -535 897 -483
1035 -559 1043 -567 9 -8 -149 -260 -164 -260 -13 0 -3123 1280 -3133 1290
-28 28 104 109 262 161 166 54 252 100 332 175 l65 62 30 -15 c16 -9 275 -149
575 -311z m3420 -84 c156 -211 295 -397 308 -415 l23 -32 -27 -41 c-15 -22
-31 -39 -35 -38 -4 2 -158 166 -343 365 l-336 363 58 89 c31 50 60 90 63 90 3
1 133 -171 289 -381z m-188 -245 c161 -175 313 -339 337 -365 l43 -48 -42 -65
c-23 -36 -46 -65 -51 -65 -13 0 -729 630 -729 641 0 12 133 219 141 219 4 0
139 -143 301 -317z m-3522 -301 c575 -236 1277 -525 1560 -642 283 -116 517
-213 519 -215 2 -3 -36 -66 -84 -140 -76 -117 -91 -136 -109 -131 -12 3 -698
182 -1526 397 -828 216 -1508 395 -1512 398 -4 3 3 33 14 66 27 77 34 219 18
380 -12 130 -6 197 27 283 11 31 21 42 32 39 9 -3 486 -198 1061 -435z m3365
-48 c198 -174 361 -319 363 -323 3 -8 -135 -221 -144 -221 -3 0 -183 124 -400
277 -265 186 -391 280 -386 289 44 77 189 293 197 293 6 1 172 -141 370 -315z
m867 -36 c50 -45 78 -78 75 -88 -4 -14 -1069 -1655 -1086 -1673 -10 -10 -216
67 -216 82 0 16 1128 1750 1138 1751 5 0 45 -32 89 -72z m-1118 -353 c211
-148 385 -276 385 -283 1 -7 -22 -47 -50 -88 -38 -57 -55 -74 -67 -69 -30 11
-817 437 -829 449 -10 8 6 40 70 138 45 70 87 126 94 125 6 -1 185 -123 397
-272z m1588 14 c145 -94 283 -188 308 -208 163 -132 280 -312 342 -527 20 -69
23 -101 22 -249 0 -143 -4 -183 -22 -248 -51 -185 -125 -310 -267 -452 -114
-114 -194 -169 -328 -223 -153 -62 -346 -86 -508 -63 -102 15 -243 60 -325
106 -123 67 -575 368 -571 379 3 7 43 70 89 142 47 71 271 415 498 764 446
686 488 750 495 750 3 0 123 -77 267 -171z m-4428 -430 c825 -216 1511 -394
1524 -397 13 -2 21 -10 19 -16 -3 -6 -39 -65 -81 -130 -66 -102 -80 -117 -99
-113 -12 3 -110 22 -217 41 -2573 470 -3314 607 -3318 611 -10 9 38 52 88 79
26 14 108 47 181 72 176 60 240 95 319 175 36 37 69 67 74 68 5 0 684 -175
1510 -390z m2695 36 c183 -99 335 -185 338 -191 6 -15 -83 -154 -99 -154 -14
0 -890 358 -900 368 -4 4 29 62 73 129 l79 123 88 -48 c48 -26 238 -128 421
-227z m-137 -348 c164 -67 298 -126 298 -130 0 -19 -82 -127 -97 -127 -14 0
-774 195 -921 236 -36 10 -52 19 -49 28 3 7 39 65 81 129 l75 116 158 -65 c87
-36 292 -120 455 -187z m-356 -261 c262 -69 478 -127 481 -130 2 -2 -21 -43
-53 -90 -40 -61 -62 -85 -73 -82 -9 3 -227 44 -486 91 -580 105 -528 94 -521
112 18 46 143 223 158 223 9 0 231 -56 494 -124z"/>
<path d="M13556 9253 c-91 -19 -176 -55 -257 -109 -75 -49 -189 -165 -207
-210 -6 -16 -93 -488 -192 -1049 -100 -561 -226 -1272 -280 -1580 -55 -308
-148 -832 -206 -1165 -92 -521 -110 -608 -129 -630 -40 -45 -658 -903 -711
-987 -192 -304 -236 -690 -118 -1041 136 -406 476 -708 906 -804 133 -30 359
-32 486 -4 253 54 465 167 638 342 46 47 197 247 427 565 196 272 362 501 369
511 7 9 904 483 1993 1053 1311 685 1988 1045 2002 1063 64 77 125 230 143
359 55 407 -297 847 -766 959 -135 32 -301 21 -460 -31 -20 -6 -21 -3 -27 102
-13 260 -156 495 -408 673 -226 158 -501 219 -725 159 -43 -12 -88 -23 -100
-26 -19 -4 -20 0 -21 79 -5 389 -353 769 -788 859 -145 30 -309 20 -419 -26
-20 -8 -38 -15 -41 -15 -3 0 -5 35 -5 78 0 97 -20 188 -60 286 -48 114 -102
191 -214 302 -237 236 -556 346 -830 287z m307 -203 c244 -62 479 -264 569
-489 19 -48 23 -75 23 -181 0 -141 -13 -190 -83 -309 -22 -36 -264 -614 -538
-1283 -274 -670 -502 -1218 -507 -1218 -5 0 -122 82 -259 181 -137 100 -263
186 -280 193 -26 9 -29 15 -24 41 3 16 118 666 256 1444 138 777 255 1421 260
1431 19 35 126 121 188 152 122 60 258 74 395 38z m1246 -906 c257 -63 496
-271 576 -502 50 -143 41 -287 -28 -419 -33 -65 -1574 -2172 -1593 -2180 -10
-4 -502 344 -547 386 -16 16 7 77 489 1251 278 679 515 1250 526 1267 46 76
182 168 289 197 73 20 208 20 288 0z m1289 -915 c154 -47 333 -168 433 -293
151 -187 182 -424 80 -624 -16 -31 -47 -73 -68 -93 -123 -116 -2036 -1720
-2046 -1716 -22 9 -561 403 -564 413 -4 13 1527 2098 1590 2164 151 160 361
214 575 149z m1207 -894 c135 -29 304 -125 418 -239 156 -156 225 -334 198
-512 -12 -83 -50 -186 -84 -226 -27 -33 -2640 -1404 -2645 -1388 -10 30 -71
80 -281 230 -127 91 -229 170 -228 176 1 7 443 384 982 839 539 455 1030 875
1090 935 78 76 130 117 175 140 114 57 243 73 375 45z m-4617 -771 c141 -102
258 -189 260 -194 3 -8 -425 -1060 -436 -1072 -8 -7 -299 201 -305 217 -2 6
41 255 94 555 54 300 103 575 109 613 7 37 14 67 16 67 3 0 121 -84 262 -186z
m737 -533 c116 -84 210 -158 209 -164 -2 -19 -653 -902 -665 -902 -12 0 -289
197 -289 206 0 4 95 238 211 520 116 283 215 524 220 537 l9 24 48 -35 c26
-19 142 -103 257 -186z m650 -470 c143 -103 260 -193 260 -199 0 -9 -871 -752
-882 -752 -2 0 -74 50 -159 112 -103 75 -153 117 -149 126 8 21 656 902 664
902 3 0 123 -85 266 -189z m-1168 -852 c450 -325 822 -595 827 -600 9 -8 -38
-84 -93 -149 l-27 -32 -824 596 c-454 328 -826 601 -828 606 -4 11 108 170
119 170 4 0 376 -266 826 -591z m1863 349 c200 -144 249 -184 238 -193 -7 -7
-236 -128 -508 -270 -272 -142 -518 -270 -546 -286 l-50 -28 -135 97 c-74 54
-134 103 -134 110 0 11 862 749 877 751 4 1 120 -81 258 -181z m-2092 -698
l822 -594 -17 -26 c-84 -127 -389 -532 -444 -588 -125 -127 -284 -219 -469
-270 -82 -22 -115 -26 -245 -26 -112 -1 -170 4 -230 18 -350 81 -623 321 -745
655 -76 209 -80 461 -10 671 47 143 113 246 423 668 37 51 74 92 81 90 6 -2
382 -271 834 -598z"/>
<path d="M130 3970 c-29 -29 -26 -74 6 -99 l27 -21 5097 0 c4939 0 5098 1
5121 18 28 23 30 73 4 102 -18 20 -20 20 -5127 20 -5095 0 -5108 0 -5128 -20z"/>
</g>
</svg>
